/* XPM */
static char *out[] = {
/* columns rows colors chars-per-pixel */
"100 100 77 1 ",
"  c #2CB3FF",
". c #33B5FF",
"X c #3AB7FE",
"o c #3EB8FE",
"O c #43B9FD",
"+ c #4BBDFC",
"@ c #52BEFB",
"# c #5ABFFB",
"$ c #63BFFB",
"% c #5CC3F7",
"& c #55C1F9",
"* c #5BC1F9",
"= c #65C6F7",
"- c #6AC6F7",
"; c #67C8F5",
": c #6BC8F5",
"> c #63C3F8",
", c #6BC3F8",
"< c #75C6F7",
"1 c #7AC7F7",
"2 c #74CBF4",
"3 c #77C5F8",
"4 c #7CC5F8",
"5 c #7ED2F1",
"6 c #96BBFE",
"7 c #98BEFC",
"8 c #86D6EE",
"9 c #94D5EF",
"0 c #9CD6EF",
"q c #93DAEC",
"w c #9BDCEB",
"e c #84C6F7",
"r c #8DC7F7",
"t c #87CAF5",
"y c #8CCDF3",
"u c #86C5F8",
"i c #90C7F7",
"p c #9FC7F7",
"a c #92CCF4",
"s c #9ACCF4",
"d c #9CC3FA",
"f c #84D2F1",
"g c #8BD0F2",
"h c #93D1F1",
"j c #9CD2F1",
"k c #A2D5EF",
"l c #ACD6EF",
"z c #A3DAEC",
"x c #AED9ED",
"c c #B3D7EF",
"v c #B2DDEB",
"b c #BADCEC",
"n c #A0C7F7",
"m c #A3CBF5",
"M c #A9CEF4",
"N c #A7D1F2",
"B c #A9D3F1",
"V c #B1D4F0",
"C c #ADE4E7",
"Z c #A3E0E9",
"A c #ABE1E8",
"S c #B7E4E7",
"D c #B9E6E6",
"F c #B7E9E4",
"G c #BDEBE3",
"H c #B5E2E9",
"J c #BCE2E9",
"K c #C5F5DE",
"L c #CAF2DF",
"P c #C7F8DC",
"I c #CAFCDA",
"U c #C2E5E7",
"Y c #C0EFE1",
"T c #C8EDE2",
"R c #C0E3E8",
"E c #C1F1E0",
"W c #CAF2E0",
/* pixels */
"IIIIIIIIILPPLPKEEEEEEEYYYYYFGGGDGDDDDDSSSvSSvvvvvvxvvxxxllllllNlBNNNNmNmmmmmpmddppdddddd77d777666666",
"IIIIIIIIIIPPPPEPPEKEEEYYFEYYGFDGDGDDDDSSSvvSSvSvvvxxxxxxxllllkNNNNNNNNmNmmmmmmpmdpddddddd77777766666",
"IIIIIIIILILPPKPEKEKEEEEYYFYFGGGGDGDDDDSSSSSHvvvvvvvxxxxxxllllBlNNBNNNNmmmmmndmdmmpdmdddd7d7d77766666",
"IIIIIIIIIIILKPKPKKEEEEYYYYYYGGGDGDDDDSSSSSvvvSvvvxvvxxxxllllllNlBNBNmNNmmmmmmmmdpdpddddddd7777776666",
"IIIIIIIIPPPLPPKKEKEEEYYYYYGGGGGGDGDDDDSSvSbHSvSvvvvxxxxxcllllBBBNNNNmNNmmmmmnmnmppdpdddd7d7777766666",
"IIIIIIIIPPPKKKKEPEKEEYYYYGYGGGGDDGDFDSSSSSSHvvvvvvvxxxxxlllBBBBBBNNNMNmNmmmmmnnnppddddddd77776776666",
"IIIIIIIIPIPPPKKKKEKEEEYYYYYYGGGGGDDJJSSSvSvSSvvvvxvxxxxxlllllBBBNBNNNNmmNmmnmnnnppdddddd7d7777666666",
"IIIIIIIIPPPPKPKKKKEEEYYYYFYFGGGFDGFFJSSSSSSvSvSvvvxvvxxxllllllBBBMNNmNNmmmmmnmnmppdddddddd7777766666",
"IIIIIIIIPIPPLPPEKEEEEEYYGYYGGGDGGJFDDDvSSvSvSvvvvvvxvlvlllllllMkBNNNNNmNmmmpmpmpppdpdddd7d6777666666",
"IIIIIPIPPPPPPPPKKKKEEEYYYYGGGGGFDGDDDDDDvDvSvvvvvvxvxvlxlxlllllMBNNNNNNmmmmmmmpppppddddid77d77676666",
"IIIIIIPIIPPPKKEPKEKKEEYYYGGYGGGGDGDDDDDDSDSvvSvvvvxxxvxlxlllBlBBNBNNmNmmNmmmmpmpppdpddddd77777766666",
"IIIIIIIIPPPPPPPEEKEEYEYYGYYGGGGJGGDDDFvDSvSSvSvSvvvxvlxxxlllllBBNMNNNNmNmmmmmpppppdpdddd7dd777666666",
"IIIIIIPPPPPPKKKKKEKEEEYYYYGGGGGGDDDDGJSvvDvSvvvvvvxvxvxlllllBlBBBNNNmNNmmmmmmppppppdddddd77777676666",
"IIIIIIIIPPPLPKKKEKEEEYYYYGGYGGGFDGDDFJSDFbSvvSvvvvxxxxxxlllllMBBBNBNNNNmmmmmmppmppdpdddd7dd777766666",
"IIIIIIIPPPPKKKKKEKKEEYYYYGYGGGGDGDDDFFSDSSvSvvvvvvvxxvxclllllBBBNNNNNNmNmmmmpmmppppddddddd7776676666",
"IIIIIIIIPIPPPPPEKEKEEEYYYYYGGGGGDGDDSJSvSvSvSvSvvvvxxxxlxlllBlBBNNNNNmNmmmmmmmppppdppddd7d7777766666",
"IIIIIIIIIPPPPPKKYKKYYYYYYGYGGGGDDGDGSSSSHHHHHHHvvvxxvxxxxlllBBBBNNNNNNNmmmmmmdmpdnnnn7p77d7777766666",
"IIIIIIIIPPPPPLKKKKYKKYYYYYGGGGGFGDDDDSSSSSHvvvvvvvvxxxxxxllllBBBBNNNMNmNmmmmmmdmnnd7nn7pd7d777676666",
"IIIIIIIIIPPLKPKKKYKYYKYYYGYGGFGGDGDDDSSSHHHHHvHvvxvxxxxllllllBBBBNNNmNmmmmmpmpppnnpp7pn7d77777676666",
"IIIIIIIIPPPPPKKKYKKYKYYYYGYGGGGGGDDDDDSSHSHHHvvvvHvxcxxxxlBlBlBBBNNNNNMmmmmmmpmpndpnn77dd77776766666",
"IIIIIIIIPPPPPKKKKYYKYYYYGYFGGGGFDDDDDSSHSSvHHvvvvvvcxxxllxlllBBBNNNNNNNmNmmnmppmnpddddddd7d776776666",
"IIIIIIIIPPPPPKKKKKKKYYYYYYYYGGGFDGDDSDSSHHHHHvHvHxAxxvxxxllllBBBBNNNmmNMmmmmmmppppdnddd7d77777666666",
"IIIIIIIIPPPPKPKKKKKYKYYYYGYGGGGUDDDGDSSSSHvSHvHvvvxxxvxxllBlBlBBBNNNNNmmmmmmnmpmpnndddddd7d777676666",
"IIIIIIIIPPPPPKPYKYYKYYYYYYGYGGGGGGDDDDSHHSSvHvvvvxHxxxxxxlxllBBBBNNNmNNmmmmmmppppndndn77dd7777766664",
"IIIIIIIIIIIIPKKKKYKYYYYYYFYYGGUFDGDDDDSSSSvvHvvvxHHxxvxxxlllllBBNBNNmNmNmmmmmpmpppdndddd777777666666",
"IIIIIIIIIIIIKPKKKKYKKYFKYYFYGGFGGDDGDSSSSvHHHvHvHxxvxxxlllllBBBBBNNNmNNmmmmmmmppppdnddddn7d777766666",
"IIIIIIIILIILPKKYKKKYKYKFFYYYYGUYDDDDDSSJJSSvHvvvvxxxxxxxxllllBBBNMBNNBmMmmmpmddmdnddddddd77d77776666",
"IIIIIIIIIILIPPKKYKYKYYYYYYYFYFFFGDDDDSSSSSvSvHHvxHvxxcxllllllBBBBBNBNmMmmmmmmmmpnndnddddd7d777766666",
"IIIIIIIIIIPPPPKKPYPYYYYYYYYYFFUFGDSSDSSJSSvvSvvvHxvxxxxxlxlBBBBBBBNmNmmNNmmmmdmpdnddddd77d7777766666",
"IIIIIIIILIIIPLKKYPYKKYYYYYFYTYYFDDYGSSSDSJHSSvvvxvvHxvvcccllllBBBBBMNNNmmmmmmmdmnndpddddd77777676666",
"IIIIIIIIIILLPKKKPPYYYPFPYYYFqZFFYxqwSDSzzDvzzvz0vvx9l0hhhhBjaahBjrasMNNmmmmpmddmndddd6ddn77777666666",
"IIIIIIIIILILKPKKKYYKKFKFFK8o+.8T5XOo&AD+:JS@=R= 2bzoh:XXoXt=.Ooj1.OX>mmNmMmmmmmdmnppdddd777777766666",
"IIIIIIPIPPLKKKKKKKKEEEEEEC.:GZCz.2DzX:DO-RH+>D%XOkxXyvkO=kl%@cBl3.N3.rNMd#rmnmnnppddpdddd77777766666",
"IIIIIIIPIIPPPKKKEEKEEGEGW8.FYGWf.CDY=+D+-DH@>U*=+%xXybxO,bl$o$$B3.y=osmMa+uMmnnnppdppddd7dd777766666",
"IIIIIIIIPPPPKPKKKEEEEEEGL5.FGGT5.HFG=+D+:DH&>U#-9.gOyvxO,cl%o$$c1.O.tMmMmMmmnmnnpppddddd777777776666",
"IIIIIIPIIPPPKKKKKKKEEEEGWq.wWGYq 9TSO%D+*UHO=U*%J%OOyvlO,bc#@ccc3XsO$Vmmmmmnmmnnpppdddddn7dd77766666",
"IIIIIIIPPPPPKPKKKKEEEGKEEG&o;&qY%X=+XwU5.%&.hR@*J0. gvx.$vl#.#@m3 Mt 4MMiOemnnnndpdpdddd7d7777766666",
"IIIIIIIIPIPPPKKKKEKEEKGEGEF5;2AGSf=<zGSSg=:0HHfgbvy20vx1yclt,,,Na,NB11mMs$7Mnmnnppdpddd6d77776776666",
"IIIIIIPIPLPPPKKKKKEEEGKGKGGLETGGGYYYGSSHDRRHHvHHvvvbvxxvvlllcccllcNNBMMmMMmmmmsnpddddddd7d7777766663",
"IIIIIIIIPPPPKPKKKEKEEKGEGGGGGGGDGSDSSSSSHHHHvHHxvvcxcxxlclllllMkNMkNMMNmmmmnmnnndmddddddd7d776766666",
"IIIIIIIIPIPPPPKKKEEEEEGEEGGGGGGGDDDDDDSSHHHHvHxHvxxvxxllllllllNlBBmNmNNmmmMmmnnnmmdddddd6i7777666666",
"IIIIIIIIPIPPPEKKKEKEEEEEGEEGGGDGGDGDSDSSSHHHHHHxvvvxxcvvlllllllNBBBNmNmBmmmnmnnnddnddddddd7776766666",
"IIIIIIIIPPPPPPEKKEEEEGGEEGGEGGGGGDSDDSSJHHHHHxHHvvvxxxxlxlllllMlBmBNBmNmmmmnnmsnmddddddd7d7777766666",
"IIIIIIIIIPPPPKPEKKKEEEEEGEGGGGGDDGDDSSSHHHHHHHxxvvxvxvxxlllllNlNNBNBmBmmmmMnmnmndmdnddddd7d777766666",
"IIIIIIIIPPPPEPKKKEKEEEEYEGGGGGGGGDGSSSJSHSHHxHxHvvxvxvllllllNNlMBNNmBmmNmmmsnmnnndnddddd7dd777766666",
"IIIIIIIIPPPPPPKPKKEEEEYYGEGEGGGGGDDDDSSSSHHHvHHHvvxxxxxxllllllMlBBNNmNNmMmmmmmnndmddddddd77777676666",
"IIIIIIIIPPPPPKKEKEKEEYYYEGGGGGGDDGSDDSSSHHHHHHHxHxvxvxxxlllllklNBmBNBmNmmmmnmnnnmmdnndddd77777766666",
"IIIIIIIIPPPPKPPEPEEEEEYYGEGGGFGSGDDDGSSSHSHHHxxHxHxvxxxcllllllMlNBNBmBmNmmmmmnnndddddddd7dd776666666",
"IIIIIIIIIIILLLILKEKEEEKGGGGGGGGGGDDDDDDHHHHHHHHxHvxvxxxxxlllllBBBNNNNNmmMmmmmppsnndnn77n7n7n76776666",
"IIIIIIIIIIILLILLKEEEEEGKGKEGGGDGDGDDSDHDHHHHHxHHxvxxxxxxxlllBBBBBNNNNMNmmmmmmppmnnddnnn7777777666666",
"IIIIIIIIIILIKPPKEKKEEKGGGEGGGGGGGDDDDSDHHHHvAxHxHxHxxcxlxllllBBBMBMNmmNNmmmpmmmpnd7n7nn7n77777676666",
"IIIIIIIIIIILPPKKKEKEEGEEEGEGGGGDGDGDSDHDJHHHHHHxxHxxxxxxlllllBBBBMkNNNmmmmmmpmppnnnnn77nn77777766666",
"IIIIIIIILPPKKPKKEKEEGEEEGEEGGGGFDGDDDSSHSSHHHxHHHxxxxxxxxlllBBBBkMNNMMmmmmmmmpnmnndn7n77767777676666",
"IIIIIIIIPPPPPKKKKKKEKEEGEGGGGGGGGDDDDDSSHHHHHHHxxHHxvAxxxllllBBBBBNNmMkmmmmppmnnndn7nnn77nn767766666",
"IIIIIIIIPIPPPKKKKEKKEEEEGEGEGGGGGDDDDSSHHHHHHxHHHxHxxxxxlllllBBBBMkNkMMMmmmmmnpnndndn67n6n6777666666",
"IIIIIIIIPPPPKKKKEKEEKGGEEGGGGGGGDGDDSSSSSHHvHHxxxvxxcxxxxlllBlBBNMNNmMkmNmmmnmnnnnndn7n6n6n777776666",
"IIIIIIPIIPPPPKKKPEEEEEEEGEGGGDGGDGDDDDHDHHHHHxxHvvvvlvxxllllllBBNNNNNMmmMnnMnnnnnddndddd7777n6766666",
"IIIIIIIPIPPPPKKKEEPEEEGEEEGEGGGGGDDDDDSHHHHHHHHHvvxlvlvxxlllBBBBlNNNMNNmmnMnnMnnnnndddd7n77777676666",
"IIIIIIIIPPPPKPKKWPIEEGEEGEGGGGGDDDDDDHDHHHHHvHHxvvxvlvxllllllBBBNNNMMMmNmmMnMnnnndndddddn7n767666666",
"IIIIIIPIPIPPPKKKEEEEEEEGEGGGGGGDDGGDDDDSHHHHHxxHHxvvxxxxxllllBBBBNNNkMmmMmnnMnnnnndnddd7777777676666",
"IIIIIIIPPPPPKKKKIEEEGEEEGGEGGGGGGDDDDSSSHSHHHHHxvxHxxxxlllllllBBlNNNmMmmmmmmnnnnnddndddd677766666666",
"IIIIIIIIILPPPKKKEEEEEEEGEGGGGGDGGDGDSDSSHHHHvxHHvxvxxvxxxllBBBBBNNNNkMkmmmmnMnnnnnnddddd66776666666$",
"IIIIIIIPPPPKKPKKWEEEEEEEGEEGGGGDDDDDDDSSHHHHHvHvvvxxxxxxxllllBBBNNkMMMMMmmmmnnnnnnnddd7d666666666666",
"IIIIIIPIIPPPPKKKEEEEEEGEEGEGGGGGDGDDSDSSHHHHvHxHvvxHxxxlxllllBBBNNMkmMMmmmmmMnnnnndndd7d666666666666",
"IIIIIIIIPPPPPPKYPYKYPYYYYFYFYFYFDGDDDDSJHSHHxHHHxHxxxxxxxBxlBBBBBBNNNNmmmmmmnmdmdpdddddd6dd777666666",
"IIIIIIIIIPPPPLKKYPPYYYYYYYYYFYYFDGDDDDSSSHHHHHvxxxHxxxxxxlBlBlBBBNNNNNmNNmmmmdmpppdpddddid7777766666",
"IIIIIIIIPPPPPPKKKYYYYYYYYKYFYUFUGDDDDDSHHHHHvvvHHxxvxxxxxBBxxBBBBBNNNNNmmmmpmmdmmdmddddd777777666666",
"IIIIIIIIPPPPLPKKKPYPYYYYYFFYYFYFDGDDDSSSHHHHHvHvxHvxxxxxxlxBBBBBNNNNmNmNmmmmmpmddmdddddd7dd777676666",
"IIIIIIIIPPPPKPPKKYKYKYYYTFYYFFUFDGDDDSSJHHHAvvvvvvxvxxxxxBlllBBBNMNNNmNmmmmmmmpppdmdddddd7d777666666",
"IIIIIIIIPPPPPKKYKKYKYYYYYYYFYFYFGDDDDSSSHHHHHHHvvvvxxvxxxllllBBBBBNNNNNmNmmmpmpmdmdddddddd7777766666",
"IIIIIIIIPPPPKKKKKKYYKYYYYFYYYFYFDGDDSDSSSHHHvvHvvvvxxxxxllxBlBBBNNNNNNmmmmmpmpppmmdndddd7d7777766666",
"IIIIIIIIPPPPKPKKKYKKYYYYYYYFUYFUDGDDDSSSHSHHHvvvvvxvxxxxxllllBBBNBNMmNmNmmmmmmmdddddddddd77777766666",
"IIIIIIIIIIIIKPKKYPYKYYYYYYYGGGGFDGDDDDSSSSSvvSSvvxvxxxxxxBxBBBBBBNNNNmNNmmmmdmpmpnnddddd7d7777776666",
"IIIIIIIIIIIIPKKKKYPYYYYYFYYGGGGFDGDDSDSSSSvSvvvvvvvxxxxxxxBxlllBNBNNNNmmmmmnmmmdpndpddddd77d77766666",
"IIIIIIIIIIIIPKKPKKKYYYYYYYGGGFUGGDDDDSSSvSvSSvvvvvvxxxxxxBxBBBBBNBNNmMmNmmmmdmdmppddddd77d7776676666",
"IIIIIIIIILIIKPKYKYKYYKYYYYYGGGGGDGDDSDSSSSSvSvvvvvvxxxxxxxBxlBBBNBNNNNNmmmmmmmmdpppdddddd77777676666",
"IIIIIIIIILPPPLKKKYKYKYYYGYYGGGGGGDDDDSSHbSvSvvvvvvxvxxxxxBllBBBBBNNNNNNmmmmmnnnmppdpdndd777777776666",
"IIIIIIIIIIPIPPKKKKKKYKYYYYGYGGGFDDGSSDSJSSSvSvSvvvvvxxxxxxllBlBBNBNNmNmNmmmmmmnnppndddd7nn7777766666",
"IIIIIIIIIILLLKKKKYYKYYYYYGYFYUFUDGGDDSSSSvvSSvvvvvxxxxxxllxllBBBBNBNNNmmmmmnnmnmnnddddd7777776676666",
"IIIIIIIILILIPPKKKKKYYYYYYYYFYGGFGDDDDDSSSSSvvSvvvvvxvxxxxBBlBlBBNNNNNmNmNmmmmnnndndndddn7d7777766666",
"IIIIIIIPPPPPPKKKKYKYEEYYYYYYFFGGDGDDDJSvDJvFvvvvvvxvxxlvcllllBBBNMNNNmmNmmmmmmppndnddddd6dd6dd6666$6",
"IIIIIIIIPPPPKKKKKKYKEYFKEFYFFYGFDGDDDDDDFvvvSvSvvvvxcvxlxlllllBBNMNNNNNmmmmpmpmpnnnddddddd6d66666666",
"IIIIIIIPIPPKPKKKKKKYEEYYYFEYGGGGGDDDFFSvSvJvSvvvvvvxxxxlxlllBBBBBNNNNmNmmmmmpmpmnddndddd66d6d6666666",
"IIIIIIIPPPPPKPKKYKYKEEYYYYFEGFGGDGDFDJSSbFvFvvSvvxxvxxvlllllBlBBNBNNNNmNNmmmmpppnnnddddddd6d66d66666",
"IIIIIIIIIPPPPKKKKKPYYYYYGYYGGGGGDGJDJSSSFvSvSvvvvvxvvxxxxlllBBBBBNNNmNmmmmmmpmdmdndnddddddd666666666",
"IIIIIPIIPPIIKPKKKYYKKYYYYYGGGGGFGDDDJSSSSDvSvvSvvvvxxxxllllllBBBNBNNNNNmmmmmmmmdnndndddd6d6dd66d6666",
"IIIIIIIIPPKPKKKKPPYYYYYYYGGYGGGDDGDDFJSSSvDvSSvvvvxxxxxlxllllBBBBNNNNNmNmmmmmpmpdnddddddddd6d6666666",
"IIIIIIPIPIPPPKKKKYYKKYYYGYGYGGYDDGFDSFSSvDvSvvvvvvAvvxxxlllllBBBNBNNmNNmmmmmmmdmmddnddddd6d66d666666",
"IIIIIIIIIPPPPPKKKYYKKYYYYYGGGGGGGDDDDDSSHSSvSvSvHxlvxlxxllllBBBBBNNNNNmNmmmmmnmdppdsddddd66d66666666",
"IIIIIIIIPPPPPKKKKKKYYYYYYGYGGGGFDGDDDDSSHSHSvvvvvvvvxvlxxxlllBBBNBNNNmNmmmmmmndmpppdddddddd66d666666",
"IIIIIIIIPIPPKKKKKKEKYYYYYYGYGGGDUFDDDDSSSHHvSvvvvvxxxxvlxBckllBBBNNNNNmmmmmmmmndppddddd7dd6d6dd66666",
"IIIIIIIIPPPPKPKKKKKYKYYYGYGGGGGGDGDDDDSSHSSvSvvvvvvxxxxxxllxBBBBNBNNNMmNmmmmmdnmppdddddd6dd666666666",
"IIIIIIIIPPPPKPKEKKYKKYYYYGGYGGGFDGFDJSSSHSvHvvvvvxxvvxxxxBlBxBBBNNNNmNmmmmmnmnmnpppdddddd66ddd666666",
"IIIIIIIIPPPPPKKKYKKYEEYYYYYGGGUDDGDDFSSSSHSvSvSvvvvxxxxxxxBxBBBBBMNMNNNmNmmmmmnnppndddd7ddd766666666",
"IIIIIIIIPPPPKPKKKEYKYYYYGYYGGGYFGFDDJFSHSvHvSvvvvvvvxxxclBllBBBBNBNNNmNmmmmnnmnnnndddddd7dd666666666",
"IIIIIIIIPPPKPKKKKKKYYYYYGYGYGFGGUDDSFSSSSSHSvSvvvvlvvvllxxlxBlBBBNNNNNNmmmmmmnnndndnddddd7d6dd676666",
"IIIIIIIIIILIILLIKYKYYYYYYYYFFFFUFFUFDSSSSSHHvvHvvvxvxxxxxllllBBBNBNNNNmmmmmnmmdmpdpdddddd6d6d6666666",
"IIIIIIIIIIILLLLLKKYKYYYYYFYYYYYFUFUFSDSSSJHHHvvvvvvxxxxxllllBlBBBNNNmNNmmmmmmnmddmdmdddddd6d66666666",
"IIIIIIIIIIIIPKLPKYYYKYYYYFYFFUGGUFFFSSSSSHHvvHvvvxxvxxxxxllBlBkBNBNNmNNmmmmnmmnnmddddddd6dd66d666666",
"IIIIIIIIIIILKPKPKKKKYKYYYYYYYFGFFFUSFSSSHHHHHvHvvvvxvxxxllllBlBBNNNNNNmNNmmmmdmndpdddddddd6d6d666666"
};
