/* XPM */
static char *out[] = {
/* columns rows colors chars-per-pixel */
"100 100 60 1 ",
"  c None",
". c #1B171E",
"X c #1D181F",
"o c #2C1F17",
"O c #241C1D",
"+ c #291F1B",
"@ c #2E2116",
"# c #2C211C",
"$ c #322316",
"% c #382717",
"& c #3A2817",
"* c #35261A",
"= c #382719",
"- c #36281C",
"; c #3C2B1B",
": c #3E341D",
"> c #1D1820",
", c #231D20",
"< c #281F20",
"1 c #2B2222",
"2 c #322621",
"3 c #362922",
"4 c #3C2C21",
"5 c #3F3124",
"6 c #36302F",
"7 c #3E342C",
"8 c #3E382F",
"9 c #373030",
"0 c #3E3732",
"q c #3E3835",
"w c #412D1B",
"e c #45311E",
"r c #49331F",
"t c #46381E",
"y c #49381F",
"u c #402E20",
"i c #453221",
"p c #4B3522",
"a c #433825",
"s c #4E3925",
"d c #43352A",
"f c #483729",
"g c #423829",
"h c #4D3A29",
"j c #503722",
"k c #533A25",
"l c #543D29",
"z c #583F29",
"x c #413934",
"c c #4A3E33",
"v c #534026",
"b c #56402B",
"n c #5B432D",
"m c #4F4034",
"M c #544233",
"N c #5E4631",
"B c #5F4832",
"V c #60462F",
"C c #604730",
"Z c #624932",
/* pixels */
"   >>..>>X.O>>.X>>>>>>>..>X.,>.>>>O>>.....>>>X>>>,>>O>.,>>,.>,>.XXX.XX>XXXXX.>X>X.>>.>X>>>XXXX>X,   ",
"   >O#######+####++###########+OO+#++233*@#+..,++#++++++<+#+++#+##############+#+####++###OXXX.>.   ",
"   O#;wwwewwwwwwwwwwwwwwwwwwwuw+<;wwwrkkjwww+O+;w;ww;wwwwwwwwwwwewwwww;wwewwwewwewwwwwweww21,>,>,   ",
"   -;w;ibnbkppsspsssspssfissfkzsijkpwrkkjjjjd;-;wwwwwwwwwwwwsjjjjjjjpeiesllhhnnnnnnnnnnnbhhh79999   ",
"   ww55fZZVzkkklhhjjjhhhlhlshlVnkjjjrjjkkkkkkrrwwrrrrrurrrijkkkkkkhjpiiiibZbbNnNCCZCZZZZBhbBMmxqq   ",
"   w5qqcZZVkkkkkklkllkhkkkkkkkknnejzkkkkzkkkkkjwpjkkkjljjkkkkkkkkjiiiiiidbCZnhhhlnCCZZZZNlbZBMxqx   ",
"   70xmBZZVkhlhhlzNnnzlhkkkkkkkzkjjkkzkkkkkkkkkpjjkzVCzljlkkkkkkkkjjjjjjphbNNbfissssnZZZZNNZZM0qq   ",
"   xqxMZZVnkhflkkznnNNkkkkkkkkkkkkkkkkkkkkzkkkkzzzzznnzhfhlkkkkkkkkkkkkkhhlnZNsslsrdlnnnnBZZBNcxx   ",
"   qqxMZZbkkklnnkkllkkkkkkhshhhskkkkkkkkhkkkkkzVCCCnhhhhhhhhhsjkjkkkkkkkkkhkbnphNlffsiiskNZZZZNlh   ",
"   433pkzzkkznZnkksssskkkkkkhkjsrkkkkkkwujjpjkkzVZZCNnnnnlw-;dpphsppjkkkkkkkkhpphu;;sllnNCZZZZZs;   ",
"   $$$ehkkkklnnlkpsjjjlkkkkkkkkspjkkjkjwwpprpjkkzCVCCNnVNk;%;uupspiiijjpppkkppiiw;*=sNCnNnNCZCl;$   ",
"   $@$hnkkjriispiiidsljjkkkhhshfhhjjpssirrrppjkkkkkbNlpsppiiiippprprppw%=ihhppisprriippiislCZl;$$   ",
"   $@#hZnnbbbllli4#*-wwph42322334hprjpkppr4-2ujjkjjkzkrw&ww;w;w;;=224pwwwihppp4*2322*2-;;=ink;$$$   ",
"   $+Odnnbnbnnnld<.X+$$wiO>OOO>>+wiiieuuiw<>,2wrreriuu;o$o$$$$$$$+O.+uiuiueee4OXO.>>.Ooo@#-d-$$$$   ",
"   %+X1111*;;&;2,,>.OOo#,>OooooO>,1O+,O<+,O>.o=*%*=$O+OOOO$$$$$$$$oO,<,<O,<+O1X..>>,.,OOOOOO$$$$$   ",
"   #+#XXO,.O+++X>+OO..+.,34i;$%##+X.>...>>O++*=*+++O...+O.O+o$%$+++.O+#+.>>>>..O+++<+++<+#,.O+++#   ",
"   >#-##;#OOXOOXO-*O,,,,2zZNswwwwu2,,,,OOO%wwww;#OXOO.#w2,,OO-w;+XOO#-w&+XOXOXO#;wwwwwww;;*OXOX>X   ",
"   >#;--;&*-*-**-;;-dlchzVZZnsiknzllchf;**;;w;ww;**--*ubld424uee:***-;w;*--****:epppphbpw;;*-#>>>   ",
"   #$wwwwwww;wppppppnCzzzVZVnkszNnVZZZVpepeeweeeriwwwrkVCnsppptryewwwww;wwwwwryttkzzlblhwee:w;#+#   ",
"   ;;;wwww;w;enVnCZNZniwrVZViikkkkVZZZVphnptjjjjskkirznkkjjshkjhhpw;wwwwwww;ehkjhnZCVnseeeeew;;-;   ",
"   ww;w;;;wwpbZbvnZZZCzhjkzzjjkkkkVZZZZvnZnvreerpknzzzzkrrppphpppiwww;weww;1-ijbnZZZbppiiieeewwig   ",
"   54iiriiewknnbsnZZnnVzzkkkkkkkkkzVVVVVNnNbrrwepknVVlkkrriirkpriiiwwweiiiu#*epvnZZZhieiiiiiiwi0q   ",
"   x0xbNNlsskkkbNBZBkpkkkkkkkkkkkkkzkzkkkzkbVvjkkkkzkkkkjjkkkkkjiiieiiiiiii;;tphknZZheieiiiiidxqq   ",
"   xqxMZZlslkkklbvkkhjkkkkkkkkkkkkkkkkkkkkrrkkkkkkkkkkkkkkkkkkprewwpppjpppppppskklnBliphllbhia0qq   ",
"   q0xNZZnlskkhkkpiikkkkkkkkkkzkkkkkjjkjkjreerkkzkkzkkkkzkkkkkrewwrjkkkkkkhkkhhkhklnlrkbZZZZlg00x   ",
"   qcNBZCCnhkkjkkkhjkkkkkkkzkzkkkjljpsjspkjjjkkkkkkkkkkkkkkkzkkjkkjkkkkjhpipkkkkjhkkhhkbZZZZVcqaa   ",
"   xcZZZZZNlhjkkkkkkkkkkkkkkkkzkkkkjisjsjkkzkkkkkkkkzkkkkkkzkkkkkkkzkkkkhsphhkkhkhkkkjklMbblCNclv   ",
"   0cNZCCCnhhkkkkkkjjkkkzkkzkkkkkkjkksslkkkkkzkkkkkjkkkkkkkkkkkkkkkkkkkhffhkhkkkkkhjkhkhhhipnZZCn   ",
"   -ullzzlzkkkkkkkp;%;kkkkkkkkkkjjpjpjkkkkkkkkkjjjjrjrkkkkkkkkkkkkkkkkhhhhhhhjkjkjkhhhhhfpiinZBvs   ",
"   $;kkkkkkkkkkkkkp;;wppjjjjjkjjjprrppjkjjjjjjjprrrrppjjkjkjkkkkeepphhhhhhhkkkkhhhsiihhhapepnZNp:   ",
"   $-fhhkkkkkkkkkkkhkheirrwiippppprpprppppjrpripeierriprrrrrrjkj;$*ihfffskkhkhkhhhd=ihhhfpepbZNi@   ",
"   O+1-wkkkzjjpjjkkkkkprrriiippiurrpipiiprrrjpe;==%;=%;&&;;ejjjjt*O11113fhkhhkhhhhapff;ifiphBZBi$   ",
"   >.OO*uuuuuwppjjjjjjpppiwwwwwwwwwwwu;u;44444;*$o$$o$@$@$$=w44442OOOO.O4diipiiiiiipa4*;ewiihbk;$   ",
"   >>..O,,,>o*rirppipprie*$$=$%$$*$$$$$*+O,O,OOo$$$$$$$$$$$$$OOOO+$oooO,,+$*$$#%$**$$$$$$$$*$%%@$   ",
"   X..>.>>>>OO+2#222#*22#+O+OOOOOOOOOOOOX>#+.>.OOOOo&&&&&$+OO.>.+-;;%%=+.OOOOOO@*&$+OOOOOOOOOOO+O   ",
"   >,OOO,,OOO,>,OOO,O,O,,OOOOOOOOO<1111<<+-;OOOOO,O$www;w%+OOO,+;;=;www=+OOOOOO#:w;OOOOOOOOOOOOX>   ",
"   >O-;;-;;;#,>+=;=--;;;-;;;;;%;-;fNzNNls;;;;;;;;=;;wwwww;&;-;;;w$,-w;w;;=;-;;;;ww;;;;;*%;;;;;;+>   ",
"   *-wwwwwww=#+*ww;#+*+-www;werrppzZZZZlpwppw;;ww;;ww;wwwwwwww;ww-2;eewwewweeehp;;ww;w;www;w;w;*#   ",
"   u;wwwwwwwwwrriu4<,,+-eewwwrkkkknCZZNserbnewwieeewww;w;ww;wwwwweiiieiiiiewetbbewweeeeeeerewww;w   ",
"   0x7xdjjjpjjzzzNzlfpppyjpjjkkkkknZZZCnbnZCnnnnnnnsw;w;&wwwepjjpkjieieiiuiiepnBvrebnnnnnnnvr;w;w   ",
"   56qqxclzkkznVCVVVzkzkkkzkkkkkjjklblbbbbbzlnnNZZZzrrrrrrrrrjkkkzzkklkhhlllpdNZZzknVVVVnnZZf55dd   ",
"   $30qqxMCkkkzkkkkkkkkkkkkzkkkriiiprreiiiiiiisNZZZbjkjkkjkkkkzkjnZVZZZCCCNnlplNVVnkkkjkjkbncqqqx   ",
"   $30qqxMCkkkkkkkjkprrknNnNVnkjjjjsjjjrwiiwwesVZnhppjkkkkrjkkkkknZZZZZZCZNliisssskkkkkkkfbZBmxqq   ",
"   $3qqqxMCnkkkkkkkkjpjknbnlVVzzzkkkkkjjshhkhslVZZkhkbzzzkkjkkkkkvZZZZZZZZNlpeiwuipkkkkkkklnZMxq0   ",
"   $30qqxMZZzkkkkkkkjkksiipsnZZVnkkkkkkkzNVVVVCZZNNNZCZZVVVzkkkkjbZZZZZZZZVCliiiisjljkkkkkkkZn0qx   ",
"   $4qqxcBZZzpijkkkkpjnnnblNZZZZZVbkkkkklznzzzzzlkknZZZZVVVzkkkkknZZZZZZZbhkpipsskkkkkkkkkkkNbg7q   ",
"   $-6xMZZZzswikkkkkppkzlnllknZZZZlpkkkkkkkkkkkjiiihbnnnVVkkkkkkhknnnnbnnseeipjjjkkkkkkkkkkkNnya0   ",
"   @$-vBZZzw$-zVkkkkkp;-===;*pVVZZkpkkkkkkkkkkkrieiepprrVZVzkkkksiiisippaieepkkkkkkkkkkzkkkznZNt*   ",
"   $@$vZZZnkhkBnkkkkkkrwwwiw&rznzzkrjwwwwwwwwww;;;=;iiuiknnkkzjpiwippsppsssphkkzkkhkkzkkkkhhlNCeo   ",
"   *$$pnnnbbnbnbzkkkkkkkkkkkrjkkkkjjjw$@$$$@@$@@$@$;wiipjkkkkpiwwwupppippppppppjkkhhkkkppsssshlw$   ",
"   $$$%;;;;;;;;pnzjkkkkkkkkkkkkkkkw&%$$$@$$$$@$@$$@$=pkjkkkld;=%$$%$=*%%%%=*%%*;hlkkkklu-su***%$$   ",
"   $$@@@$@@@@@@;jiwwrrwjzkzkkjewrr%$$$$$$$$$$$$$o$@$$weweeew;$$$$$$$$$$@$o$$@$$%4weewew**;;$$$$$$   ",
"   $$$$$$$$$$$@$$$$$$$$wjjjjjw$$$$$$$$$@$$$$o$$$$$$$$$$$$$$$$$$$$$$$$$$$$$$$$$$$$$$$$$$$$$$$$$o$$   ",
"   $$$$@$$@$$@$$$$$$$$$%%w%w&=$o$ww&$$$$$$$$$$$;&;&&$$$@$o$$$;%$$$$$$$$$$$$$@$$@$$$$$$o$$@$;%$$$$   ",
"   #@++@oo@#$&$&%%%%$%%$$$$$===$$www$%%$$$$$%%=wwww&$@@*oo$%%w%%++oooO++ooo@$$@oo++o+o$&$&;w%%%##   ",
"   ,XOXOOXXX@;;;;w&&ww;wwwwww&www&wwwwwwwwwww;;wwwww;+#;#+;ww;;=OO..OOO,.XOo$@OX.XOXO+%ww;w;;w;#X   ",
"   $*-;d4#>.OO#O++*;w;ww;ww;+$wwwwwwwwwwwwww;*#;ww;w;;-;--ww;#*;=****2-#O>.OOO.>X#--*-wwwwwww;w=-   ",
"   dwwipp4121..,O+#;wwwrwrww1$wrrepprrrw;w;w;##;w;ww;ww;wwww=+*wwwwwwww-OOO,...,O;wwwirwiwwrww;ww   ",
"   xdw;welNN7,X#;;wwwwkkkkrw;;wkVVVVnZze;ww;w;:wwwwwwwwwwwwww;;;wwwwwwwwww-OO.,O;wesjsjjljkjw;w;;   ",
"   q077ghnZZlddijrrjppkkkkjprpjzzzkkZZCzlkllkklkkjjprrjkkliiieuuwiwwwujkkkkfddfhlieklljkkkkkdd5dg   ",
"   xqqqcZZZCZZZNkkkkzkkjkkkkkkkkkkpjnVnZZZZZZZVVZnzkkkzVZnlkkppiuiiiiihNZZZZZZZZNhpjjljkjkkkcxqqx   ",
"   0qqqcZZCZZZCnkkkknnpirkkkkkkkkkkkkzzCZZZZZZVzkkkkkkkzkkkkznliriiiuiikCZZZZZZnpupjljkkslkkNMxqq   ",
"   xq07fNZZZCCnzkzlskkiiipjjkkkkkkkkkkklllkznnnkkkkkkkkkkkkklZliiiiiiiikzzzNznzzipjkssjksjkkNMxqx   ",
"   xxxiiNCCCCCzkznbiuieiiiwijkkzkkkkkkkiippjkkvkkjkkkhkkkkkjznkiuiiiiikkkkkkkzkkkkkkppkkljhkNNxxq   ",
"   lhhttkzzznVzkkzjrwiiuiiiiekNNnkkkkkkkkVVVNVVnlpriikkkkkkkkjpiieeiiishpisnCnzkkkkkkkkksjjkCCNxq   ",
"   pkkjykkjkznkkkkkrppkllkhlllZZVnkkkkkkvvzzblbbsiippkkkkkkkpieiiipi;ppppppbnnkkkkzzkpkklklkNZZcq   ",
"   eypjjkkzkkkkkkkkkkzCCNNCCnVCCVVbkkkkkpterieiiuwiijjkjpjppiwiiiifpiiepjjjkkkzkkkzVkikkjkkkCZZcq   ",
"   -&;;rnVVnzkkkknnkkzCjinZCpilzzzzkkkzkkjjpe;*=*%*=;&;;;;;;%*wfsfhhissi;%wjkkkkkkkzsripkkkkNZZBN   ",
"   $$@@&hnZZVzzkkVnkkkVpizVnwwkkkkkjjkjkjjspiu----;-;-=-$$*-;;ifhhhhhhhd--whkkkkjjjjsuiskhkpkNllk   ",
"   $$$$$%sCCCCCnkkzkkkkzVkkkkkkkkjpeiuiwep:psfsfhshhssfs;;sfidsshhhhhhfhssfhkkkprriwiihhfssipph4*   ",
"   $$$$$$;eeupNCVVnkkkkzzkkkkpw;;;;;====*%*;;-;;phhhhhhhdifhf5;;4ihhs;;;;--;;;;;%%=%=;hi;fhspid;@   ",
"   $$$$$$@$$@*kzzzkrjrjrpjppjw$$@o+oo$$$$$$$$$$$;idisfiisaipi%$@@-ii4$$$$$$$$$@$$$$$$*i-%ipduw;%$   ",
"   $@@$$$$$$$$%$%$=$$=$=%$$%$$$$oO..O+$$$$$$$$$$*$%*%$*$*$$*$$$$$$%*$@$$$$$$$$$$@$$$$$*$$$*$$$$$$   ",
"   O+++OOOOOOOOOOOOO$&&=%+OO+OO+O,>.>+===%===oOO#;%%&;$OO+O+O+O+*&$#OOO+%&%%&&+++O+OOOO+O+O++OO++   ",
"   >X>XOOOOOOOOOOOO,2=*=-OOO,OOOOOO,O*w;wwww;#O,*w;;-;*OOOOOOOO+&e;#OOO@;w;ww;OX..OOOOOOOOOOOOOX>   ",
"   >XX.O-;=%;--;=&#.,,O,O-;;=-==--;=-;wwwwwww;-=;ww*O>#-;*;**;=%;w;;;*;&;wwww;OXX.O*;**;*;-*-;*#>   ",
"   ####*;wwwwwwwww=#O...,+**;wwwww;wwwww;www;w;*###O>#*;;w;ewwwww;wwwwwww;www;$##OO#-wwwwwww;ww*#   ",
"   www;ww;wwwwwwwwww2,,O,,,<;wwwwwwwwwwwwwwww;-1,O,,,-ee;ee;;;ww;w;w&ww&ww;www;w;#O>*wwww&wwwww;w   ",
"   wwwwwwwwwwwiwiupjpiiiuiiipjjssppspjjppspsssidd474difisp;;ww;ww;;;wwww;;w;;www;;#>3sreww;;w;w;;   ",
"   w;w;;;weippiiiiijjkzkzkzkkkkkjljsjpjkkkksfssfsssssihssfieeetwewewwwwwwewwwwwwep42ahkrrwewww;ee   ",
"   www:e:pkkkjpiiiiidpjkkkkkkkkkkjpiiipkkkkkkpiuiiiiiiiishkfshsfiieieieieieiiiiisfhhhkkkkhi;;ww;;   ",
"   ;wwpblnnkkkjpipjjsjkkkkjpjkksipiuiiibzkkkkksspuiiiiiuuifiiiifiiiiiiiiiiiiiiiiflkkkkjkhhp;wwwww   ",
"   i;ebZZZVkkkkjpjkkjkkkkzs34ppiiipuuiizzjkkkkkksiiipiiiiuupppppieeiiuiiiiiiiiiispjkkkbkshp:5;www   ",
"   07tbBZZVzkkkkjkkkkjlhkCdO,2uiiwduiiipiikkkkkkkkljjkshpiipkjkjiiiiiiiiiiiiieeiiipkkbnlifptga;ww   ",
"   qgbBBcNNlkkkkkkkhkhhhhBlfd42uhphpirieissjlkkkkkkkhkkkjfpjkkkjpsifsiiiiiiiiiiiiiphknZkislbx07e;   ",
"   qmNNbxMnzkkkkhkkfhffllZZZZf,3dudu44uushhlkkkkkkkkkkhkkkkkjjkzkkhhkhsiiiieeiiiiepknZZbsfbNcq07i   ",
"   qmNvaxMVzjrpkkkkkkhflZZZZZf,>O<<,OO<dhhlkkkkkkjhfjhhhskkhkjkkkkkkkkkkspwiiiiiiepknZZZbhbNcqq00   ",
"   qmZy:7bnkpprpkkkkkhhlhlzCCf4333332<>2uhjkkkkkjpdsidpppfppfpjjkkkkkkjkhhpppieiippknZZZZlllcfhgg   ",
"   xcNsaybNjyrrjkjkkkkssfplCzkkkkkkkjw+,3kkkkkkkppeppsppiiiiiiiijkkkkkkkkkkkjprepjjknZZVNlkkzkzpp   ",
"   qxcbnnZnprrrrppjkkkjsfzBZCzkkkkVVjpipiikkkkkkjjjznnNbjpffjiiirjpkkkkkkkkzkpkkjpipbZZnkkzVVVVNn   ",
"   qqqMZZZVjjjhppprjkjkzNZNlCCnzkkzzpjkkkpkkjppskbnnZNbljufjffiirrrjjjkkkkkkkkkkkprikzbzkbVZZZZnN   ",
"   qqxMZZZnzkkhpprppppkzNZlpzCCzkkkkprrkkkkjiiipbZZZBhsiiiuuijjippjpyjjkjkkkkkkkkkkrpppjznCVZZNbh   ",
"   --:hZZnzkkkkjpprrprjkbCnnzzzkkkkkjrrkkkkjiipbNZZZNhirrrrrrjppiikprrppppppjkjjjpjpppnVnllkjkkhh   ",
"   $@$vBlkkkkkkjrrpprppjkzVVzklkkkkkjrpjkjkjiplNZCZZNlppprppprrrpsspjrpe43-ijkprprrrrjbnzsdrrrrsh   ",
"   $@%ll;wkkkkprpprripipppjkkkhfhkkkprppppjkplCNZZZZNhsprjrjppjrrpppiir;O>1pkkjrrppprjppiiirrrpsh   ",
"   $@%4;$*ekkkjrppu-#1*wrjppjpswwjjjrprjrppprhllnZZnksprppprpprjrji2*#21X14pjjrppiirprppippippp:;   ",
"   $$$$$$$*4diuupj4>...2uu4uwur=%wiweeeeeeeeeeewjzzjuueeeeeewurrrww<...O<4hrrwrwwwuwwuwrwiwieee$$   ",
"   $@$$@@$@+OO,2ii;,...OO,OO$$$$$$*=$$$$$%$$$$$$$%*$$$$$$$$$$$$$$%*O>..<dfpiw%$*$$*$$=$$=$=$$$$$$   ",
"   O+O++++OX...O2*<>O,....>.OOO+OO+OOOOOo+O++O+++O+OO+O+++++++++OOOOO>OO22*2+OO+OOOO++OOOO+OOoOO+   ",
"   >X>.X.....>>O.O.O>..>>O.>.O..O.O..O.......>......>>.X.........O....>..X>XO.O.O..>>.O....OO..O,   "
};
