/* XPM */
static char *out[] = {
/* columns rows colors chars-per-pixel */
"100 100 56 1 ",
"  c #181C27",
". c #1B1F2A",
"X c #1D212C",
"o c #1F2430",
"O c #20242F",
"+ c #222632",
"@ c #252935",
"# c #282C37",
"$ c #272C38",
"% c #2A2E3A",
"& c #2D323D",
"* c #31353F",
"= c #32383F",
"- c #2F3540",
"; c #323641",
": c #353A44",
"> c #383C47",
", c #373E48",
"< c #3B3D4A",
"1 c #3A4047",
"2 c #3D424B",
"3 c #3E4450",
"4 c #41444F",
"5 c #42494F",
"6 c #444652",
"7 c #464A54",
"8 c #484B56",
"9 c #4A4E58",
"0 c #4A5156",
"q c #4D535B",
"w c #4F585E",
"e c #50575E",
"r c #51595E",
"t c #4D5660",
"y c #525661",
"u c #565E64",
"i c #5A5F69",
"p c #576065",
"a c #586166",
"s c #5C646B",
"d c #5F686F",
"f c #616770",
"g c #636B73",
"h c #676F78",
"j c #677176",
"k c #677178",
"l c #69747A",
"z c #6E797E",
"x c #6F7980",
"c c #737D84",
"v c #758086",
"b c #768288",
"n c #7A868C",
"m c #7E8A91",
"M c #818D94",
"N c #8A979D",
/* pixels */
"XXX.O+@++oXXXXXXOXXXXXXXOXXXXXXXXXXXX OXXXXXOXXXXO.XO.O.O.XXXXXXXXXXXXXXXXXXO O OOXXXXXXXXXXXXXXXXXX",
"XXXX#:>>>:==@XXX.X.....X..XXXXXXXXXXXOX XX XX XO...........X.XXXXXXOXXOX XX  O O  ......XXXXXXXXXXXX",
"X.X+*9eeqqqw1OXO+O++O@O@OOX.XXXXX OX OOOOOOOOOOOOOOOOO@OOO@OOX.XXXXX XXOO@OOO.OOO+++OO++OOOXXXXXXXXX",
"XXXX*788870q0555555455551O.XXXOXXOXXOOO=05555555555000000005=O.OXXXOXX O5555=O=4111<4<<<<<&....XXXXX",
"XXX.%6768rarwruw0e0ee00e0:@O OXXO O  @=0rw55wuururruppppiuue5=OO OX O#=:0rrr5100qqqeqqqqq9<%%#O.XXXX",
"XXXX*6888lvuwuuw88888889wq1OO XX O.OO=0rr0==ruuuuuuuuuupuuuq57*OOXXX=0wqrruuurruuirurirurq886>O.XXXX",
"XXO;<8hhrasrruurreeeee870w01OXXOO OO10rrrr00uupupuppuuuuuuuue84=OXO=0rrpuuuuppuuuuraaaiirreq9<X.XXXX",
"X.O<88hzrqwwuuupuuuuue080qr0#OX O##=0rruuuupuuuuupuuuupuuuuur994&#&0ruppuuuuuupuiuauuraruuii9<%OXXXX",
"X.+<87errrrpuupuupuuuuuuuur0&OX.#000wruuuupuuupppuuuuauuuuuuuue747qrpuppuuuupuuuruuauiuuuuuu984%XXXX",
"X.+<788errupppruupupuuuauur84*O.&0ruruuuuupupuuuuuppuuuuuuuuuure84=qpurpppuuuuuuauuuuuuuuuuueq6&.XXX",
"X.+<77qraprppuaauupuuupuuue9e1O.&0uupuuuupuupuuuuuuuuuuauuuauuur9*+7pupuuuuaupuaurrrrrruurruue6%.XXX",
"X.+<87euppapuupupuuupuuupuur9<+.&rpuuupuuuupuuppuapuupuuauuuuuuuq=+5ppuuuaupuuuuuq898quiu9euie8&.XXX",
"X.+<68euarupuupuuuppuppuuupu9>O.&rpuuuuppuuupuuuupuuuuuuauuuuuuu9;+7auuuuuauuuuuur96689yq7quue6<%OXX",
"X.O<88eippuupuarupuuuuuuuupr9>@X&0upuuuppupupuupuuupauuauuuauuuu8;+7auppuuuuupuurue98868679uie98<O.X",
"X.O488rppupppaauuupupupuuuuu844#O=0ppuuuuuuuuuuuuuupuuuuuuuuuuuuq;O7ppuupuuauuue99qe986688quuur9<O.X",
"X.X*<7ruuparrrrupuuupuuuuuuueq81=O=5rppuupupuppuapuuuauuauuuuiur0=+7pupuuuuupuue668y968866quuuuq<OXX",
"XXXX&6yiuuuue8ruauuuuuuuuupuurew3$o-wpiuupuuauuuuupuuauuuapuuuuu9*@5apuuppuuuupe8888886877quupuq<O.X",
"XXX.%6rauuuuq8ruuuuuauuapuuuarrr7oo-wpuuuuuauuuauuuuupuuuuuuauuu9;+7ppupuuuppuuuee96668677quuuuq<+.X",
"XXX.&8ruiuur08ruuuuauuuuuuuppuruu3--wuuupuuuuuuuuupuuupuuuupuuuu8;O7pppuuuupuuuuiiy868qq960upuur6OXX",
"XX..#6ruuuy888yiuauuuauuuauuuuurgn9%wuuppuuuauuuuuaupuuuuauuuuur0=@7appuppuuupuuary888rrr90upuup8OXX",
"O.. #6eiiur878ruuuauuuuuupuuur98dmto:8ipuuuuuuuupupuupupuuuuuauu9;+8ppruuuupuuupuur8789earrauuup8#XX",
"..O#>8ruuye878uuauuuauuaupupur97smto+<tyuuuuiuuupuuuuuupuuuuuuuu8;+1qpppupupupupuurq9q9earrauuup8O.X",
"..@4qqrauq8878rauuuuuuuuuuuuuuu8smto+:88quuuuuuuuuppuuuuuuuuuuuu9:XX:rppuppuuupuauurarraaaaauuua0O.X",
"O.O5rruuur9868ruuuauuuauiuuuuuu9tg3o+%:78quuuuuuuuuuauuuuauuuuuu9:X 1ldurppupuuuuuuuraarararuuuu7@.X",
".O#5rppuuur070ruauuaaapaaauauuu976;oo+-:67tuuuuuuuuyupppuuuuuuuy8:X 6nluuuauuuuuuuuuuuuuupuuupur5OXO",
".=0qruuuupr0qruuuuarrpraraaruuu967-XXo+o-78quuuuuu888yupauuuuur88;X.6nluuuuuuauuuuuuauiupuupuuur5O..",
".=qrrppuuuuqruuuaaauapaaaaauuuuq76-.Xooo$:39tqyeuuw98qtyreeeee99f8O 6mzuuuuuuaauuuuauuuupuuupuur01#.",
"X=quuuuuuuuuuupurrauarprurauuuu976-Xooo$$$<366468ww8636366444669zuO 2bjyruuuuuuuauuuauuuuuppupurqq=.",
"X=qupuuuuupuuuuuaaraappppuupuuu976-oooo62o$-%%%%&&-&%%%%-%@$#%%;1*O.=prrrrapuuuuuauuuuauupuuuuurqr=X",
".=qupuuuuuupupuprapparpapuuprpre6<&$::>y0:::::::::::::::$o...+oo. ..&8rrrrpuuaauuuuuuuuuuppuuuur01# ",
"X=rpuupuuuupupppaprppapruaruaar9<$+-wuyuuutuuuuwuuutuyut:$$$$$+oOOO.#500rruuuuuuuuuaauuauupuuuur5#XX",
".=qppuuuppppppppaaaaprppuuapare>$@:qypuupppppppuppppppuuq6776<><5=O.O#40wrupuuauuauuuuuupuuuuuuu5OXX",
"X=wrruppp00557770377wpppppppu9<%$-0puuuuuuuuuuuuuauuauuuaaaau088y6#O..:9eruuuuuauuauupuupuuuuuur4O.X",
"X=qwruupp1oO@++@$$$-3uupuuuy9,%+-tuuuuupuuuuuuauuuuuuuuuuuuuuuq8882#.X:8qruuauuuuuuuuuupuuuppupr6#.X",
"X@:0ruruq=o1222223:o&1::::,:;%+X-upuupupuuuuuuuuuaauuuuuuuauuuyew97<%O:9rruiuuauauuuuuuuuppuurrr5+..",
"XXO155503==wapauaa0-&&&&%%%&$o+@:tpuuuuuuuuuuuuuuuuuauuauuuuuuuuuy98>@;60ruuuuuuuuauauuauuuuuuw01+..",
"XXXO+O@O@1wpuuuupuuwqww83379%XO2tuuuuuupuu90uuuuuuuuauuuuuuuuauuuuy9<@@-7ruuuuuuuuuuuuuuuuuuarq=OO..",
"XXXXXXXX10apuuuuuuuupppwtwuy%&wjlpuuupuuuu989uuuuauuuuuuapupuuuuuuu9<+o$:4ruauuuuuppuuupuuuurrw*...O",
"XXXXXXX:wppruuuupuuuppupppu8@5MNbsuuuuuuuy968yuuuuuauuuauuuuuuuuuui9:oo++;69eerupuuuuuuuuuuurw7&...O",
"XXXXXX1wparqyuuuuupuprpppp3#.7MNbauupuuuy9777euuuuuuauuuuuuuauuauuu9:o.oX+##%%4ruauaaparwrwrw5%OX.O.",
"XXXXO:wpuyq79uuuupupuupuuu<O@eMnlppupuuw977779yuuuuuuuuppuuuauuuuuuq:+..XXXX X&>222417wuw2112*..XX.X",
"XXXX=rpuu978euuuuuupupuuuu<O<fMjppupuuyq7767779uuuuauauupuupuupuputq<@ooXoo@O+o+@OOOX@5q5@XoXXX.OXOX",
"XXX =rpr98779uuupuuuuuupuq;#fMMgruuuupy86769e979yuuuuppuuuuuupuuutq6>$oooo%30777701OXX@%@XXX..X..O.X",
"XXX:0ppr8677yuuuuppuppuuy9;;fccdpuuuuuuq999euy99yppuuuuuuppuuuupiq7i9$o@o&1wappppaq1=&=&&&&@#$+X..O.",
"X #jcppw77780uuppuupuupuu866899yuuuuuuuuuuuuuuuuuuupuupppuuuppuupw9xk%oo#3uuuuuuppuwwrryru055<@.X..O",
"XX&znppr80ttuupuuupuuppuuyq766780qyuuupuuuuuuuuuuuuuuuuuuuppuuupptymk&o&3wppuppuprupppppppuw9<@++O..",
"XX@jzpur0tpuuuuuuppuuuuuuuy986<6779uuupuuuuuuuuuupuuuauuupuuuuuuuusxs$o;wpuuuupuppppppuuuuuue4*@+..O",
"X @0suuuuuuuuuupuuuuppuuuuuy9:#>7789ypuuuuiuuuuuuuupuuppuuuuaupuuuuu3oo=qpuupuuuppuuppuppuuure4*+X.X",
"XXX=3uppuuuuupuuuuuuuuuuuupu9:X#>6689uuuupuuuuupppuuuuppuuupuuupuuu9>@+-tpppuuuuuuuuuuuuuuuuuuq6*+X.",
"XXXX:uppupuuuuupauuaauauuuuu9:O.@46879yuuuuuppupuuuppuuupuupupuuiuu9>$o-ypuupupuuuuuiuuuuuuuuuue4#O.",
"XXXo:uppuupppupuuuuuuuauupuu0>XXo+>6779uuuuuuupppuuupuupuuuuuuupuuu9>$o-yppupuuuuauuuuuuuuuuuuu04#O.",
"XXXo1wpppuuuuupuuuauuuuuuuuy9<*+.X#>7790wwupppppppupuuuuuppuppuuuuu9<$o-wpuuuupuuyqqeeeyuuuuuuuy6$OO",
"XXXX:wppuuupupuuuuuuuauupuuy084%XXX+<66768wtwwwtwtuuuuupuuuuuuuuuuu9,$o-wpuupupuu988868yuuuuuuuu8%++",
"XXXX=pppppuuuuupauuauuuapuuu976%XOXX@@%47897:--&&>8yuuupuupuupuuuuu9,$o;yppupuuuuuyy9769uuuuuuuw74-@",
"XXXX:ppaptwpuuuuuuuuuuuuuupu888&o+%#X .->>,&o&::%$:6tupppuwryuuuuuw9<$o;wppuuuuuuuue977euuuiuuu97q:+",
"XXXX&wrrwq7uuuuuuauuauuuuuur988=+@>4@X+++$%$%3uw2++;7tuyyw768ruuuq76,$o;wpppuppupar87770uuuuuuu99y<@",
"XXX.@;;-&2899quuuuuuuuuuuuwq92=@%<66<46677730wppw3$o&;;::-&&;7t9t87;@$>0uuuuuuuuuuuee08899yuuuu99u<o",
"XX.Xooo.X&2778quuuuuuuauuuw86-+&>6689yuappppppuupu1&--;;----:><<<<>$.+2ruauuuauuuupuuu08679uuuuqty2@",
"XX.Xo+@oXX#27879uuuuuuuurww8-+#29769ruuupupuppuuuuuwuwyruwru0-$$$$$oo@3ruuuauauuppuuuuuq87quuuuuuu<@",
"XXXXo++oX X%<889y999yiuuur5-+&1q9869uauuuuuuppppuupppppppuppu6366;+..$6yuuuuuuuuuuupuuuuqwyuauqyuu<+",
"XXXXX+%%%%@X%4<47768qyuurq>XO;qq9780uuuuuuppuuuuuuuuuupuupuuuuutu6+oX@7uuuuuuuuuuuuuuuuuuuuuyw8ypu,o",
"XX.XO@>7qr5Oo+O-677789ut88>++:qq77euuuuupuuupuuuuuuppuuuuuuuuuw88>@++@7auuuuuuuuuuuuuuuuuuuu077tuu1$",
"XXXX#;7rpae4>;OO;;>888q96<%+*5q968euuuuupuuuuuuwwpupuupupupuuudgt:o++%7uuuuuuuuuuuuuuuuuuuuq99w323-o",
"XXX+*7rpppuuie-O..#<44262%+-7ee967euuuuuuupuupt6wutuuuuupuuuuuzcy:@+++4uuuuuuuuyuuuyuyuuyuq7670&ooo$",
"XX.+-7yuuuuuauw:..X@@@@%$o=00w0077yuuuuauuauuuy8888yuuuupuuuuuap04<%+@7u99989989988889998986;--oXO##",
"XX+->8yupuupuuuq::&. XXX$;120w078qyuuuuuuuuuuyq87789uuuuuuuauurqq97#O@:2::;>>;;><>>>:::>::>:-oo XOOO",
".o$<77yupuuuuuuuuu7+XoXo%51%5q870uuuuuuuauuuu977776euuuuupupuurreq4#o+XXXXXXXXXO@@$$%%%#$$$$+o.oXXXX",
"XX$287yuuuppuuuuppw072$X@003008qyupuuuauuupuu9777689uuuuupuuupuyqq4%X+XX....XOOO+;37788873<<@oooX.XX",
".O+*47yupuuupuuuuuuppq%$=0rqq00uuuuuuuupuupuue99990yuuuuupuuuuuue96#X+%%%%%%%-;%;6yuuuuuy886;$+o.XXX",
".XOX%7yuuupuuuppuuupp0%:0wqe00uupuupppuupuuuuuuuuuuuuuiuuuupuuuye96#XX:6666666676tuuuuue68876<$oX.XX",
"XXX.%6yuupuuupuuupuup0%%10ee88uuuupuuupuuuuuuuupuuuuuuuuaupuuuuu097#..:8788eyyrryyuuuuuuyy9786:$XXXX",
"XXX@*8yuuuppuupuuuuup0$o#0e09euuuuuupuuuuppuuuuuuuuuuuuuuuuuuuuu96>@X#<7789uuuuaiuuuuuuuuuy9686%.XXX",
"X.O>67yuuuuupuuuuupua8@.#0q7tuuuuuuuuiuppuuupupuauuuuuuuauupuuuu9>+X%4777quuauuuupuuuppuuuuy976&..XX",
".X+487euuuauuupuuupp8;++@=::9w0yuuuuuuupuuppuuuuuuuauupuuuupue0q8;X%<79eeyuuuuuuuuiuuuuuuuuu9774>O.X",
".+#499yuuauuupuupuu0:o#%&&#$:48wuuuuuuuuuuuuuuuppuuupuuyruuyt8634;#<89rpuuuuuuuupuuppuupuuuu967e8O.X",
".X#<0yuuuuuuupuuup7&o%<4401++;789uuupuuuuuupuuuuuiuuuur9888887;+O*<79ruuuuuuuuaupuuupuupuuuu96884O.X",
".+$<9iuuuuupuuuuua3o#>69euq>++;68qyeuuupuuwtuuuuuauyw09790qqqw:$6989euuuuuuauuauuuupuuuuiuuuy978<OXX",
".X%<9uuiuauuupuuuw2#>88euppe&Xo;6668ruuupu99uuuuuuue9888yuppuw:-zl9euuuuuuuuuuuuupuupupuuuuuie78<OXX",
"..#4quuuuuuuuuuur>=249rruuuue:XO##>899qyuu99uuuuuupuyyuruppaw:$&yauuuuuuiuuuauuuuupupuuuuuuuiy68<O.X",
"X+$<quuuuupaaapw3&&79euuuuuuu9;;%.%>>27qyw79uuppuuuuuyrw8577,+%:9ruuuuuuuuuuuuaupupuuuppuuuuuy986*O.",
".O#4euuuuuurrrr4@>78euuuuuuuuuuu7@@#@:68877quuuuuuuuy876&oo$%@1quuuuuuupuauuauuauuuppuuuuapuupu966*.",
"O*7re0raupe:&&**149ruuuuuuuuuuuur752$@:0tuyyupuuuuuy984&oXo=37quuuuuppuuuuuauuuuupuuuupuuuuuuuue88&.",
".:aa08rrpu7OO@#;78euuuuuuuuuauuuupaw1$$3070wuppuuuyq74*+Xo=7uppuuuauuupuuuuuuuuupupuupupuuupuuu986*.",
"O:rr980rre4+*4668wuuuuauauuauuuuuupuu1o%%$$:tuuuuu876#XOX&0uupuuuuuuupuuauuuauuauupuupuuuauuuuu986*.",
".:ureq0qe74:47eeeuuuuuauuuuuuuuuuuuupq5433$$::::>>;-%X@;:2uppuupppuuauupuuauauuuuppuuppuauuuuuue86*.",
".:rpurrq7ey889yuuuuuuuuuuuuyyuruupuupupppu1&---&#%+oXX&60qupuuuuuuupuuuuuuuuuuuuuuuuuuuuuuuauuu977&.",
"O=rpurur8hxq9uuuuuuuuuuuuue8888ruuuuupupputqww836<%oX+&7wuuuupupupuppuuuauuauuuuuuppppupuuuuuuu977&O",
"X=rp9>eyehh90uuuuuuuuuauuuq7777epuupuuupu0wwwww86;+.X-2qyuuuupuuuuuuuupuuuuuauuapuuuuuuuauuuure885* ",
".&0u5%7puur7qruuuuuuuppuuue7768yuiuupuuuw888780w>oX.+<quuppuuupupuupupuuuauuauuuuuauuuuuuuuuue770q=O",
"O+=qu0qrprw77quuuupuuuuuuue8677yuupupuppuruw80qw:.XX$<89ypuupuuupuupuuuauuuuuuuuauuuuuiuuuuu087err=O",
"XO@>qp52urq777eruuuuuuupuay0997euuuuuuupuuyq0211%.X+$4870yuuuuuuuuuupuuuauuuuuuauuuuuuuuauuue99uuq= ",
" OO@:w==rrq77879uuuuupuuuuuuue8yuuuiupuruy080&XXo+++$<6679yuuuuuuppuuupuuuuuuauuuuauuuuuuupuuuuurw=O",
"XXXX@:30rprqqq7890euauuuuuuuuueuuuuuuure8q05&XXX>2@X+%--28990upuuuuuupuuuuuuuuuuauuuuuuuauuuuuuuuw= ",
"XXXXXo1wppprqe87668eeyuuuuuuuuuuuurrrre7885:X.o;0w1&;;$+;3888ereeeyuuuupuuuuuuuuurrrrruuuuuuuuuuur=O",
"XXXXXXo:rppprweq888789uuuuaaauuuiuq7787770&XX %0ppuqqq2$+;897877889yuuuuuuuuuuuuu9888qruuuuuuuueq0&O",
"XXXXXXX@=qpprrre9987679999fcbluuu984*<qe5&O.XX&uapapuyq2%+:8e777767999099e9999e998890rrurrrrurrr0=+ ",
"XXXXXXXXX1wuuppuwrw0708880dbnzpw722>o;77=XXXXXO30000050w1#O100009989789877778888889e0755555555551OXX",
"XXXXXXXXXo;wwwwuwurwqqqqq0qppw0:@@$$o$$+oXXXXXoOOooOOo=0q1Oo&wuruyuuuuuw7777666669e0:##@+@+O+O++OOXX",
"XXXXXXXXXXo;:=:1::===11111:===;+XXXooXX.XXXXXXXXXXXXXXO==:1@X==117uupu7>-;%;;;--&;;;@OXX..XX ... XXX",
"XXXXXXXXXXXXXXXXXXXXO+o+o+XXXXXXXXXXXXXXXXXXXXXXXXXXXXXXX&0=XXXXo>uupu:o...X ...XXX.O..XOX.OOXX.OXXX"
};
